HIERARCHY
ROOT simHips
{
  OFFSET -194.108 84.0345 -23.8287
  CHANNELS 6 Xposition Yposition Zposition Zrotation Xrotation Yrotation
  JOINT simSpine
  {
    OFFSET -0.000355721 21.3001 -0.016921
    CHANNELS 3 Zrotation Xrotation Yrotation
    JOINT simLeftArm
    {
      OFFSET 13.5181 21.3012 0
      CHANNELS 3 Zrotation Xrotation Yrotation
      JOINT simLeftForeArm
      {
        OFFSET 24.5783 0 0
        CHANNELS 3 Zrotation Xrotation Yrotation
        JOINT simLeftHand
        {
          OFFSET 24.5783 0 0
          CHANNELS 3 Zrotation Xrotation Yrotation
          End Site
          {
            OFFSET 7.32568 1.52588e-05 0.0169305
          }
        }
      }
    }
    JOINT simHead
    {
      OFFSET 0 27.4458 -0.00489235
      CHANNELS 3 Zrotation Xrotation Yrotation
      End Site
      {
        OFFSET 0 0 0
      }
    }
    JOINT simRightArm
    {
      OFFSET -13.5174 21.3012 0
      CHANNELS 3 Zrotation Xrotation Yrotation
      JOINT simRightForeArm
      {
        OFFSET -24.5783 0 0
        CHANNELS 3 Zrotation Xrotation Yrotation
        JOINT simRightHand
        {
          OFFSET -24.5783 0 0
          CHANNELS 3 Zrotation Xrotation Yrotation
          End Site
          {
            OFFSET -7.32568 1.52588e-05 0.0169305
          }
        }
      }
    }
  }
  JOINT simRightUpLeg
  {
    OFFSET -8.44614 -9.41038 0.835684
    CHANNELS 3 Zrotation Xrotation Yrotation
    JOINT simRightLeg
    {
      OFFSET 0 -40.9639 0
      CHANNELS 3 Zrotation Xrotation Yrotation
      JOINT simRightFoot
      {
        OFFSET 0 -40.9639 0
        CHANNELS 3 Zrotation Xrotation Yrotation
        End Site
        {
          OFFSET 0.50614 -9.67405 14.6709
        }
      }
    }
  }
  JOINT simLeftUpLeg
  {
    OFFSET 8.44614 -9.41038 0.835684
    CHANNELS 3 Zrotation Xrotation Yrotation
    JOINT simLeftLeg
    {
      OFFSET 0 -40.9639 0
      CHANNELS 3 Zrotation Xrotation Yrotation
      JOINT simLeftFoot
      {
        OFFSET 0 -40.9639 0
        CHANNELS 3 Zrotation Xrotation Yrotation
        End Site
        {
          OFFSET -0.50614 -9.67405 14.6709
        }
      }
    }
  }
}
MOTION
Frames:	29
Frame Time:	0.0333333
11.5052 98.0822 508.111 1.1993 -0.682559 61.0453 -0.975132 0.870912 -0.843423 -62.4472 30.3654 -10.2841 21.0683 -17.8378 -36.6198 5.6245 -22.9906 -3.9691 -16.91 -16.1753 -18.2662 66.3931 53.6476 -6.44831 -25.594 -7.96356 24.0294 -13.7272 -0.602089 -0.638411 -3.81755 -23.8452 3.50209 13.9376 66.3147 4.73285 7.12755 3.62544 -24.3777 -8.33899 -7.23967 0.287783 5.18197 25.0817 14.4817 5.44377 -10.8648 2.37188 
15.0457 98.295 509.819 0.290366 -0.707134 61.4956 -0.617145 0.624518 -1.44492 -56.7323 31.0566 -16.2392 20.8417 -18.3067 -38.2378 6.38473 -20.9547 -4.11696 -15.4908 -17.146 -19.7453 75.2739 54.0177 -12.8513 -22.9358 -5.01944 19.6897 -10.8932 -0.831876 -0.712275 -1.33848 -26.3313 6.66941 12.7137 58.9111 5.6745 5.96041 0.0992913 -24.486 -7.679 -3.83517 0.117321 4.5612 22.0705 14.6529 5.31759 -11.477 2.22305 
18.7049 98.257 511.481 -0.731672 -0.647088 61.8542 -0.263982 0.36432 -1.98555 -50.7807 31.0984 -21.6992 20.7047 -18.7704 -39.5837 6.44686 -20.3422 -4.26436 -13.8629 -18.8158 -20.7971 83.5123 53.326 -18.9524 -20.2721 -2.55482 15.5819 -7.34544 1.11784 0.274556 0.532552 -27.9357 9.06426 10.8251 48.932 7.02215 5.77398 -1.74104 -25.161 -7.25963 -0.797704 -0.657767 4.14831 19.5956 15.0413 4.99734 -12.1196 2.34512 
22.402 98.0226 513.092 -1.71045 -0.536458 62.2327 0.05265 0.144549 -2.42989 -45.9872 30.0603 -26.0728 20.6351 -19.2037 -40.6537 6.22947 -20.6704 -4.21444 -11.8339 -20.9787 -21.1411 91.0627 51.6384 -24.7728 -18.0398 -0.733568 11.8363 -4.39225 4.40338 1.4932 1.52633 -28.8658 10.5933 9.13912 37.0837 8.85904 6.75732 -1.737 -25.777 -7.04554 1.86531 -1.9163 3.92554 17.9047 15.5577 4.50082 -12.853 2.65149 
26.1454 97.5512 514.684 -2.53234 -0.37994 62.4889 0.322575 -0.0252697 -2.71409 -42.7811 28.1355 -29.1858 20.5916 -19.4244 -41.2187 5.93198 -21.1815 -4.03265 -8.99705 -23.2964 -20.2734 97.7385 49.4376 -30.0389 -16.3147 0.584534 8.412 -2.52957 6.74661 2.13109 2.36208 -28.9711 12.151 7.37296 24.4056 11.0938 7.67829 -0.263498 -26.3034 -6.91855 4.2691 -2.78874 3.7445 17.0381 15.8098 3.95921 -13.9067 2.84505 
29.9628 96.8706 516.328 -3.05015 -0.289046 62.138 0.577542 -0.123982 -2.77591 -40.4803 26.1562 -30.9514 20.6257 -19.3071 -40.8822 5.47762 -22.2859 -3.75097 -5.03226 -25.2269 -17.6087 103.305 47.317 -34.4896 -14.964 1.57047 5.39631 -1.21356 7.32871 2.24506 2.80455 -29.4975 13.6187 6.06854 14.7087 13.5308 10.6095 -0.856791 -25.9586 -6.872 6.56274 -2.6246 3.57838 17.1323 15.722 3.27416 -14.941 2.80739 
34.1155 95.6656 518.238 -2.73308 -0.054249 61.2263 0.77675 -0.11901 -2.73848 -38.6414 25.1823 -31.2883 20.7983 -18.894 -39.5488 4.79536 -24.6509 -3.40686 -0.801893 -26.1414 -13.5104 107.355 45.4005 -38.3777 -14.0047 2.24817 3.09147 -0.00544841 7.22857 2.4417 2.73134 -30.6393 13.0513 6.45702 13.5046 15.1933 12.512 -8.65369 -23.7784 -7.4341 9.02535 -1.56776 3.36795 18.9245 15.3123 2.28865 -16.2635 2.57199 
38.2784 94.7688 520.086 -2.79988 -1.04295 60.5786 1.27175 -0.0739911 -2.79296 -35.92 25.9798 -30.5958 21.0779 -18.305 -37.5437 4.09935 -27.7506 -3.0505 3.79143 -26.0403 -9.57137 110.343 43.5187 -40.5064 -13.5445 2.57909 1.86148 0.608964 7.23996 2.86203 4.34753 -31.6589 10.5311 7.18163 18.6786 15.1577 14.5759 -8.54088 -23.0747 -6.72515 11.8303 -0.570111 3.5849 20.3615 14.3683 0.755755 -16.2315 1.87487 
42.6853 94.1495 522.073 -3.08651 -2.64415 61.2307 1.91585 -0.116914 -3.04832 -33.062 28.6383 -29.7824 21.3991 -17.5493 -35.109 3.61854 -30.6525 -2.66192 7.44569 -25.4498 -7.34082 111.834 41.0674 -40.6628 -13.5991 2.57226 1.794 0.0571249 6.67511 3.01612 6.60039 -31.5336 7.79447 7.47604 23.4871 14.2033 8.40925 3.29614 -24.7604 -4.75901 13.7828 1.37666 4.27201 23.4219 11.9165 -0.946759 -14.4188 0.220091 
46.8816 94.0284 524.002 -3.95877 -5.13108 62.7859 2.73924 -0.210051 -3.28318 -30.3296 32.1608 -29.0536 21.5537 -16.4223 -32.3191 3.0905 -33.3494 -2.30032 11.0584 -24.9481 -6.50008 112.603 38.5595 -38.9005 -14.0352 2.34052 2.40996 -1.11451 4.62343 2.58651 9.6004 -30.0038 7.3943 7.79651 26.4768 12.1234 2.73981 5.89792 -25.5523 -0.614364 13.573 4.34283 5.68272 28.7454 7.66716 -2.37359 -9.85293 -2.31554 
50.7955 93.8622 525.811 -4.49334 -7.69231 64.3678 3.48212 -0.140619 -3.31066 -29.1452 35.6132 -27.6805 21.3448 -14.7893 -29.2337 2.04813 -36.2261 -2.14834 14.6698 -24.6081 -5.78207 112.847 37.3045 -36.2972 -14.6109 2.06374 2.96785 -2.02828 1.80392 1.76871 12.5864 -28.3839 8.41222 8.23677 30.0108 9.64366 -0.203764 3.23246 -26.3482 4.68817 10.135 5.98372 7.54341 38.9888 1.94736 -7.09391 -1.42005 -5.05381 
54.6116 93.7353 527.606 -3.73996 -9.0543 65.6882 3.79477 0.189121 -3.13458 -30.7594 39.0698 -25.2079 20.8606 -12.7875 -25.6629 0.361623 -39.1871 -2.37943 17.0843 -23.9637 -4.41645 111.678 38.5608 -33.2651 -15.1369 1.84098 3.23511 -2.94939 0.0661026 0.837891 13.5326 -26.1202 7.43677 8.23446 33.8928 8.87123 -2.27465 -0.600198 -26.29 7.7626 5.0928 4.66066 9.46886 51.9487 -2.49903 -9.30859 8.26841 -5.64865 
58.3705 94.0287 529.395 -2.13562 -9.033 67.1752 3.65566 0.558635 -2.876 -34.4454 42.8111 -22.4648 20.2583 -10.525 -21.2562 -2.14958 -42.0687 -3.38037 17.4904 -22.7254 -2.72448 108.464 42.5119 -29.353 -15.6125 1.59718 3.69553 -4.83944 -0.0880067 -0.244432 12.0788 -22.6821 4.36042 7.92669 36.0544 9.54571 -3.50369 -4.57579 -25.7115 8.13887 -1.39051 1.24241 10.5479 64.6695 -3.9315 -11.0146 16.9748 -4.14694 
61.8432 94.5999 530.866 -1.03571 -8.78995 69.0895 3.41297 0.742804 -2.58823 -38.6352 45.9491 -19.8337 19.3886 -8.07986 -16.3641 -5.88129 -44.5805 -5.58037 16.5023 -21.0882 -1.36085 103.403 48.2638 -24.0314 -16.2891 1.16362 4.78235 -7.70857 -0.178462 -1.70965 10.7507 -18.986 2.35291 7.7402 35.8256 9.62709 -3.89676 -6.97269 -25.7296 7.1666 -8.48766 -2.03683 12.5057 73.6353 -3.26176 -11.8359 18.757 -1.03122 
65.3075 95.4746 532.142 -0.26263 -8.10867 70.6697 3.04793 0.759916 -2.15671 -45.0073 46.5884 -15.0668 18.3352 -5.98873 -12.2036 -10.0532 -45.7466 -8.08725 14.0626 -19.5044 -0.164835 95.2771 54.2325 -16.9342 -17.4803 0.405075 6.40378 -10.3482 -1.2401 -3.28937 9.74438 -14.8848 2.69127 7.63785 33.6102 8.82702 -3.3941 -8.35514 -26.4375 5.02625 -15.0455 -3.67362 16.2168 78.0145 -3.43579 -8.19439 14.5669 1.36884 
68.8887 96.5407 533.344 0.390285 -6.59896 71.4852 2.48877 0.707723 -1.5509 -53.2973 43.7774 -7.64149 17.7792 -4.95532 -9.99608 -12.5128 -44.6946 -8.86845 10.057 -18.7328 0.774194 83.2547 57.7494 -7.4028 -19.2103 -0.738206 8.42678 -11.7661 -2.34003 -4.08532 8.13445 -10.611 3.55444 7.23045 30.439 8.45128 -2.42587 -8.96422 -27.0474 2.08219 -21.0037 -3.95199 16.4145 77.8983 -0.720885 -1.69957 11.5454 2.5589 
72.4397 97.2353 534.313 0.240098 -5.65514 72.0676 2.0443 0.623909 -0.905161 -59.2802 39.086 0.0206216 18.1186 -5.19271 -10.1897 -12.6752 -41.7092 -7.93795 5.75504 -19.1471 0.616195 70.6718 57.0572 2.99487 -21.2471 -2.28163 10.9992 -12.0133 -2.79804 -3.82186 6.88354 -7.64527 2.93761 6.89644 28.4607 8.99157 -1.22344 -9.14799 -26.8811 0.264389 -26.4133 -4.26556 13.8937 74.5441 3.67267 -1.50562 8.36481 3.62581 
76.0602 97.5715 535.31 -0.330203 -5.23297 72.6773 1.67058 0.55387 -0.330311 -62.435 34.5461 7.02415 19.2331 -6.54586 -12.3422 -12.3328 -37.5558 -7.49981 1.37 -20.0731 -0.757653 60.2792 53.6654 11.4443 -23.3685 -4.19457 14.1261 -11.849 -3.25862 -3.21342 6.04822 -5.22338 1.29152 6.79711 27.1887 9.97885 -0.106997 -9.38504 -26.2501 -0.364077 -30.5108 -4.25469 10.5953 67.5498 6.53984 -2.0101 4.37624 2.80207 
79.7773 97.6107 536.475 -0.791465 -5.02349 73.4942 1.29049 0.553942 0.0925819 -63.8548 30.554 13.4217 20.7886 -8.81826 -15.8152 -12.7515 -32.3057 -8.53795 -2.84986 -20.6459 -2.86839 51.6722 49.7235 17.6305 -25.4573 -6.37202 17.4053 -11.945 -3.97463 -2.84686 5.62008 -2.54649 0.204025 6.8781 26.0642 10.6358 0.847685 -10.0277 -25.7549 -0.499544 -32.6412 -3.65981 9.15497 56.6288 7.33732 -2.14533 3.1412 1.13758 
83.6223 97.371 537.805 -1.06161 -4.93574 74.3924 0.910776 0.600223 0.385678 -64.0103 26.1316 19.1387 22.1407 -11.6962 -20.3605 -13.4705 -25.65 -10.0205 -6.34292 -20.7043 -4.8977 43.7505 46.1039 22.337 -27.3881 -8.6355 20.4243 -12.3249 -4.1373 -2.62618 5.78602 0.660482 0.24486 6.76377 24.5996 10.7267 1.71066 -11.0909 -25.7252 -0.590652 -32.2702 -3.04141 7.80993 41.8476 9.22757 -0.142918 3.02241 -0.170369 
87.4784 96.985 539.158 -1.26784 -4.49145 75.151 0.492739 0.624836 0.587166 -63.3475 20.82 23.9053 22.621 -14.5867 -25.855 -13.7383 -18.5547 -10.8022 -9.13021 -20.6828 -6.26073 35.883 42.6902 26.0707 -28.9573 -10.7399 23.0884 -12.5739 -3.20544 -2.23214 5.84168 4.40952 0.66292 6.37699 22.0773 10.7344 2.24912 -12.2708 -25.9409 -0.788638 -30.4877 -3.91286 6.29164 24.8221 12.407 -0.0139941 4.92219 -0.430902 
91.319 96.3382 540.357 -1.55957 -4.26445 76.0298 0.189732 0.644597 0.660801 -61.9158 15.8833 27.5779 22.214 -16.7971 -31.4512 -13.6001 -13.3451 -10.8206 -11.0072 -20.8334 -7.09505 29.3797 39.0761 28.3324 -30.0317 -12.508 25.5799 -12.4654 -1.42124 -1.49702 6.00789 7.66052 0.431254 6.10382 20.3885 10.8363 2.8771 -13.4436 -25.9963 -1.40207 -29.0581 -6.06003 5.69092 11.7772 14.8722 0.870642 5.10057 0.140214 
95.3132 95.4475 541.307 -1.74086 -4.5187 77.1497 0.0513552 0.709263 0.639272 -60.4484 12.5032 29.91 21.6212 -18.098 -35.6182 -13.4455 -11.395 -10.5436 -12.0335 -21.1143 -7.61254 25.4636 35.4043 28.6285 -30.6255 -13.9377 28.2236 -12.2379 0.461549 -0.707861 6.15053 9.79954 -0.0668465 6.35796 21.3436 11.0412 4.8384 -14.5126 -25.5039 -1.52996 -29.8654 -5.70837 5.18261 11.2792 17.2971 -6.18078 2.37107 2.33897 
99.4049 94.5096 542.089 -1.57282 -4.28644 77.9339 -0.143234 0.778345 0.649517 -60.3888 10.1616 30.7208 21.4018 -18.7435 -37.5015 -13.4608 -11.9312 -10.3226 -12.832 -21.3037 -7.605 23.3113 32.467 27.7662 -30.8874 -15.0997 31.0738 -12.2267 1.38548 -0.340556 4.70138 11.012 -0.903929 7.95889 24.6209 11.44 6.40989 -14.6784 -24.3199 -3.34381 -31.5184 -2.54162 5.67862 19.4424 18.4905 0.970305 6.10864 2.94155 
103.863 93.7844 542.681 -1.15868 -3.67164 77.8313 -0.390384 0.736792 0.74221 -61.6509 7.75729 30.211 21.5993 -18.9944 -37.4407 -13.575 -13.4639 -10.3103 -13.1896 -21.1815 -6.94044 22.3865 30.9999 26.9469 -30.9861 -16.0286 33.7264 -12.3865 0.736737 -0.43153 0.936055 10.7351 -3.7924 10.677 30.9154 12.6813 9.25135 -10.5797 -22.0597 -5.14415 -31.9886 0.966732 6.54687 26.4703 16.6994 10.9732 7.87963 1.269 
107.951 94.0176 543.024 -0.728131 -1.56165 77.287 -0.874217 0.592119 0.752677 -64.7301 5.1457 27.7432 22.127 -18.9907 -36.0117 -13.5799 -15.1495 -10.5433 -14.3202 -20.9214 -6.16302 22.0747 30.8562 26.3544 -31.0365 -16.735 35.9552 -12.3489 -0.814037 -0.498888 -4.57387 7.32193 -7.56969 10.6562 40.2304 15.1033 14.9828 -1.7307 -20.5255 -7.81468 -30.701 1.88377 7.08435 29.2668 16.1403 11.3616 3.52546 2.09874 
112.313 94.4243 543.264 -0.344787 -1.05401 77.3217 -0.973386 0.546644 0.602806 -66.5902 4.04637 23.5331 22.9541 -18.6631 -33.3102 -13.1563 -17.0855 -10.8134 -14.3664 -20.833 -6.01253 25.0112 31.4387 24.7353 -30.9715 -17.2284 37.9582 -11.9654 -2.0237 -0.177116 -7.86213 1.12973 -8.94577 10.5433 53.1599 15.7485 19.1283 8.29329 -21.2708 -8.75183 -28.6276 1.52843 6.81896 31.8989 16.2507 10.2449 -0.210847 3.04875 
116.331 94.8511 543.482 0.238921 -1.17681 78.1826 -0.862927 0.733861 0.341765 -67.4104 5.82165 17.6587 23.8198 -17.5693 -29.267 -12.0533 -20.2637 -10.6185 -13.9626 -20.9687 -6.37372 30.1943 32.7932 21.528 -30.8461 -17.508 39.6151 -11.573 -2.34187 0.425716 -8.56524 -6.37009 -6.87591 11.9532 65.197 11.6348 23.6493 13.5174 -24.4969 -9.18919 -25.6983 1.67899 6.73721 33.1997 15.8625 9.66941 -3.802 3.49575 
119.951 95.3622 543.78 0.960269 -0.844218 79.7036 -0.752196 1.0092 0.0319983 -66.9424 11.0303 10.5533 24.0091 -15.2227 -24.3217 -10.4884 -25.581 -9.55929 -13.4377 -20.8017 -6.82769 36.1021 35.2454 17.0661 -30.7271 -17.4148 39.9338 -11.5037 -1.93621 0.972338 -8.13992 -12.8345 -4.05799 15.8637 72.5592 5.52603 19.4788 12.1622 -24.9579 -10.258 -21.8519 1.76323 6.98894 32.3117 15.2062 9.42204 -6.08917 3.4759 
